HIERARCHY
ROOT Hips
{
	OFFSET 0.000000 0.000000 0.000000
	CHANNELS 6 Xposition Yposition Zposition Xrotation Yrotation Zrotation
	JOINT LeftUpLeg_virtual
	{
		OFFSET 0.000000 0.000000 0.000000
		CHANNELS 3 Xrotation Yrotation Zrotation
		JOINT LeftUpLeg
		{
			OFFSET 10.205400 -3.823500 0.155100
			CHANNELS 3 Xrotation Yrotation Zrotation
			JOINT LeftLeg
			{
				OFFSET 0.708757 -12.982077 0.567790
				CHANNELS 3 Xrotation Yrotation Zrotation
				JOINT LeftFoot
				{
					OFFSET -0.708756 -10.717838 -2.184338
					CHANNELS 3 Xrotation Yrotation Zrotation
					JOINT LeftToeBase
					{
						OFFSET 0.108149 -7.191104 7.560241
						CHANNELS 3 Xrotation Yrotation Zrotation
						JOINT LeftToe_End
						{
							OFFSET 0.070230 0.081724 4.490308
							CHANNELS 3 Xrotation Yrotation Zrotation
							End Site
							{
								OFFSET 0 0 0
							}
						}
					}
				}
			}
		}
	}
	JOINT RightUpLeg_virtual
	{
		OFFSET 0.000000 0.000000 0.000000
		CHANNELS 3 Xrotation Yrotation Zrotation
		JOINT RightUpLeg
		{
			OFFSET -10.205400 -3.823500 0.005500
			CHANNELS 3 Xrotation Yrotation Zrotation
			JOINT RightLeg
			{
				OFFSET -0.708756 -12.982134 0.610632
				CHANNELS 3 Xrotation Yrotation Zrotation
				JOINT RightFoot
				{
					OFFSET 0.708754 -10.717769 -1.945823
					CHANNELS 3 Xrotation Yrotation Zrotation
					JOINT RightToeBase
					{
						OFFSET -0.108140 -7.191069 7.372968
						CHANNELS 3 Xrotation Yrotation Zrotation
						JOINT RightToe_End
						{
							OFFSET -0.070227 0.081735 4.479403
							CHANNELS 3 Xrotation Yrotation Zrotation
							End Site
							{
								OFFSET 0 0 0
							}
						}
					}
				}
			}
		}
	}
	JOINT Spine_virtual
	{
		OFFSET 0.000000 0.000000 0.000000
		CHANNELS 3 Xrotation Yrotation Zrotation
		JOINT Spine
		{
			OFFSET 0.000000 6.876099 0.125700
			CHANNELS 3 Xrotation Yrotation Zrotation
			JOINT Spine1
			{
				OFFSET 0.000000 5.730043 0.104720
				CHANNELS 3 Xrotation Yrotation Zrotation
				JOINT Spine1_split
				{
					OFFSET 0.000000 5.730043 0.104720
					CHANNELS 3 Xrotation Yrotation Zrotation
					JOINT Spine2
					{
						OFFSET 0.000000 5.730043 0.104720
						CHANNELS 3 Xrotation Yrotation Zrotation
						JOINT Neck_virtual
						{
							OFFSET 0.000000 0.000000 0.000000
							CHANNELS 3 Xrotation Yrotation Zrotation
							JOINT Neck
							{
								OFFSET 0.000000 10.314075 0.188496
								CHANNELS 3 Xrotation Yrotation Zrotation
								JOINT Head
								{
									OFFSET 0.000000 7.643700 -2.377400
									CHANNELS 3 Xrotation Yrotation Zrotation
									JOINT HeadTop_End
									{
										OFFSET 0.000000 43.788605 -13.619600
										CHANNELS 3 Xrotation Yrotation Zrotation
										End Site
										{
											OFFSET 0 0 0
										}
									}
								}
							}
						}
						JOINT LeftShoulder_virtual
						{
							OFFSET 0.000000 0.000000 0.000000
							CHANNELS 3 Xrotation Yrotation Zrotation
							JOINT LeftShoulder
							{
								OFFSET 2.196100 4.412489 0.087492
								CHANNELS 3 Xrotation Yrotation Zrotation
								JOINT LeftShoulder_split
								{
									OFFSET 2.196100 4.412489 0.087492
									CHANNELS 3 Xrotation Yrotation Zrotation
									JOINT LeftArm
									{
										OFFSET 8.771219 -2.981674 -0.026999
										CHANNELS 3 Xrotation Yrotation Zrotation
										JOINT LeftForeArm
										{
											OFFSET 8.512804 0.000000 -0.000000
											CHANNELS 3 Xrotation Yrotation Zrotation
											JOINT LeftHand
											{
												OFFSET 18.484802 0.000000 -0.000000
												CHANNELS 3 Xrotation Yrotation Zrotation
												End Site
												{
													OFFSET 0 0 0
												}
											}
										}
									}
								}
							}
						}
						JOINT RightShoulder_virtual
						{
							OFFSET 0.000000 0.000000 0.000000
							CHANNELS 3 Xrotation Yrotation Zrotation
							JOINT RightShoulder
							{
								OFFSET -2.196100 4.412496 0.070690
								CHANNELS 3 Xrotation Yrotation Zrotation
								JOINT RightShoulder_split
								{
									OFFSET -2.196100 4.412496 0.070690
									CHANNELS 3 Xrotation Yrotation Zrotation
									JOINT RightArm
									{
										OFFSET -8.771282 -2.981682 -0.094208
										CHANNELS 3 Xrotation Yrotation Zrotation
										JOINT RightForeArm
										{
											OFFSET -8.494598 0.000000 0.000000
											CHANNELS 3 Xrotation Yrotation Zrotation
											JOINT RightHand
											{
												OFFSET -18.483803 0.000000 0.000001
												CHANNELS 3 Xrotation Yrotation Zrotation
												End Site
												{
													OFFSET 0 0 0
												}
											}
										}
									}
								}
							}
						}
					}
				}
			}
		}
	}
}
MOTION
Frames: 8
Frame Time: 0.03333333
-0.044147 26.251062 2.047754 0.000000 0.000000 0.000000 21.738064 -19.443496 7.806537 -74.680694 -1.545947 24.163162 60.466510 -0.491570 4.790332 -5.945619 3.404333 -25.491555 -2.753396 -0.072852 -0.567553 0.000000 0.000000 0.000000 21.038034 -20.071510 8.178033 -65.808395 -3.277971 -25.658497 60.971521 1.411516 -10.544449 -17.386156 -5.983168 21.494566 -5.601408 1.589412 -1.191492 0.000000 0.000000 0.000000 24.107474 -21.837547 8.260645 16.147628 1.992870 -1.346929 10.151088 2.109133 -1.199121 1.060672 0.597862 0.752293 0.000000 0.000000 0.000000 10.178379 1.793246 -0.421352 -8.172684 5.289728 -9.121043 -40.903944 10.050362 8.656904 0.000000 0.000000 0.000000 10.173354 1.828184 -1.261827 3.695327 -6.004172 7.305809 -5.901150 -3.301783 -0.731972 -51.842471 4.864050 -60.887100 -2.087536 -83.754116 -0.747945 0.000000 0.000000 0.000000 11.381425 2.392891 -0.454767 2.869124 14.084218 4.323622 -0.240376 2.626865 0.976383 -41.203396 10.116782 45.954841 162.442061 88.334932 -162.951211 0.000000 0.000000 0.000000 
0.006447 26.341311 2.154724 0.000000 0.000000 0.000000 22.038626 -19.131708 8.035683 -74.524010 -1.003639 23.638103 59.502525 -0.795644 5.059792 -6.186082 3.286079 -25.491977 -2.872015 -0.047122 -0.440907 0.000000 0.000000 0.000000 21.371990 -20.009172 8.469099 -65.717007 -3.452081 -25.300959 60.098479 1.694757 -11.266161 -17.352924 -6.272604 21.458405 -5.614575 1.711884 -1.181660 0.000000 0.000000 0.000000 24.130160 -21.406117 8.385515 16.211647 2.042673 -1.324586 10.000356 2.153490 -1.251260 1.031358 0.139763 0.772608 0.000000 0.000000 0.000000 10.305419 1.816418 -0.479103 -7.713099 5.307698 -8.797731 -41.096651 10.829743 8.391610 0.000000 0.000000 0.000000 10.213828 1.854063 -1.212408 3.479003 -5.268740 6.315471 -6.026110 -3.249425 -0.829603 -50.424435 5.368708 -61.842589 -3.129317 -85.837781 -1.913909 0.000000 0.000000 0.000000 11.391642 2.320310 -0.528990 2.762013 13.900763 5.556287 -0.628434 2.891199 0.792766 -39.518453 10.682480 46.694940 175.095137 85.062390 -175.700428 0.000000 0.000000 0.000000 
0.008230 26.354012 2.250858 0.000000 0.000000 0.000000 22.303165 -18.960257 8.336170 -74.621647 -0.539993 23.390154 59.071731 -1.098513 5.275428 -6.335591 3.147295 -25.676798 -2.940119 -0.042188 -0.223955 0.000000 0.000000 0.000000 21.811092 -20.049151 8.820619 -65.982920 -3.378676 -25.033816 59.764654 1.802372 -11.844415 -17.329879 -6.332750 21.373933 -5.546085 1.828100 -1.169737 0.000000 0.000000 0.000000 24.176887 -21.083874 8.523320 16.269282 1.990941 -1.323734 9.966930 2.052737 -1.267597 0.963746 -0.077950 0.721847 0.000000 0.000000 0.000000 10.503333 1.699237 -0.520849 -7.198977 5.292519 -8.496942 -41.277688 11.614142 8.042111 0.000000 0.000000 0.000000 10.407040 1.735802 -1.114613 3.322176 -4.774139 5.702705 -5.943957 -3.141889 -0.867412 -48.863119 5.859557 -62.352681 -5.259940 -88.365053 -4.095216 0.000000 0.000000 0.000000 11.479835 2.093419 -0.581394 2.756001 13.608629 6.253229 -1.004842 2.988248 0.680123 -38.491589 10.667309 47.912442 177.676265 81.266328 -178.361415 0.000000 0.000000 0.000000 
-0.030976 26.307262 2.322512 0.000000 0.000000 0.000000 22.570823 -18.865968 8.652060 -74.865854 -0.206222 23.394400 59.025948 -1.301525 5.420903 -6.462184 3.125536 -25.904666 -2.784295 -0.044742 0.004450 0.000000 0.000000 0.000000 22.329063 -20.162293 9.185357 -66.421787 -3.209436 -24.822419 59.896231 1.712929 -12.229014 -17.383450 -6.216623 21.142000 -5.395386 1.937060 -1.158174 0.000000 0.000000 0.000000 24.297852 -20.830429 8.630410 16.309537 1.855788 -1.311445 10.051623 1.870768 -1.250679 0.926164 -0.125872 0.742637 0.000000 0.000000 0.000000 10.745085 1.497127 -0.549510 -6.742509 5.261134 -8.261828 -41.511725 12.375954 7.605478 0.000000 0.000000 0.000000 10.717447 1.527639 -0.992984 3.218685 -4.571172 5.159102 -5.633046 -2.973562 -0.806687 -47.261361 6.335505 -62.454546 -174.611136 -89.208705 -173.397808 0.000000 0.000000 0.000000 11.622142 1.785084 -0.614382 2.807763 13.290420 6.524708 -1.301116 2.993572 0.667490 -37.863557 9.944490 49.425728 178.589202 77.302401 -179.338392 0.000000 0.000000 0.000000 
-0.105245 26.225393 2.359142 0.000000 0.000000 0.000000 22.840115 -18.847910 8.939724 -75.105197 -0.068320 23.568795 59.145019 -1.360764 5.517910 -6.585945 3.314081 -26.179594 -2.498624 -0.035082 0.195561 0.000000 0.000000 0.000000 22.828253 -20.339076 9.503413 -66.985837 -3.018888 -24.621517 60.390149 1.464650 -12.437144 -17.495084 -5.995490 20.909086 -5.393590 2.025053 -1.138386 0.000000 0.000000 0.000000 24.515540 -20.628414 8.725803 16.338238 1.663275 -1.259670 10.213723 1.662254 -1.204962 0.864747 -0.112891 0.713989 0.000000 0.000000 0.000000 10.996739 1.273015 -0.577671 -6.396545 5.179983 -8.136365 -41.790731 13.132378 7.069056 0.000000 0.000000 0.000000 11.078762 1.296194 -0.889552 3.135987 -4.571583 4.387739 -5.324768 -2.706418 -0.630088 -45.743980 6.698252 -62.314903 -179.225011 -87.260188 -177.923382 0.000000 0.000000 0.000000 11.837826 1.489956 -0.639540 2.877363 12.983301 6.508044 -1.547058 3.050634 0.710219 -37.337489 8.862974 50.846643 178.929045 73.740457 -179.738832 0.000000 0.000000 0.000000 
-0.207836 26.119806 2.355421 0.000000 0.000000 0.000000 23.098293 -18.874114 9.159186 -75.282482 -0.181788 23.802204 59.314681 -1.322817 5.616768 -6.704267 3.656583 -26.545911 -2.352440 -0.021101 0.383809 0.000000 0.000000 0.000000 23.236683 -20.511323 9.732994 -67.584599 -2.820639 -24.410953 61.210161 1.122460 -12.517512 -17.676637 -5.705968 20.776578 -5.674171 2.089334 -1.125704 0.000000 0.000000 0.000000 24.787971 -20.425483 8.814499 16.327255 1.466707 -1.150040 10.425842 1.497833 -1.139108 0.950030 -0.011775 0.796183 0.000000 0.000000 0.000000 11.232251 1.094262 -0.600240 -6.158238 5.064507 -8.186865 -42.149927 13.894707 6.441017 0.000000 0.000000 0.000000 11.447610 1.098770 -0.807617 3.048251 -4.633564 3.342038 -4.970701 -2.432951 -0.347771 -44.484984 6.802623 -62.201638 -179.500226 -85.934080 -178.116198 0.000000 0.000000 0.000000 12.106946 1.277975 -0.658702 2.930599 12.722488 6.379194 -1.775373 3.029339 0.976119 -36.792030 8.003889 51.918249 179.037304 71.182859 -179.916513 0.000000 0.000000 0.000000 
-0.325572 25.990656 2.308790 0.000000 0.000000 0.000000 23.311297 -18.873401 9.267894 -75.455996 -0.541990 24.013238 59.549803 -1.268964 5.725053 -6.768099 4.050681 -27.037760 -2.428276 -0.018159 0.589042 0.000000 0.000000 0.000000 23.547229 -20.643297 9.865512 -68.248063 -2.570345 -24.223599 62.279891 0.783448 -12.522670 -18.047352 -5.384850 20.777362 -6.115964 2.127342 -1.134685 0.000000 0.000000 0.000000 25.068623 -20.202375 8.898274 16.257285 1.291433 -0.984276 10.658616 1.395276 -1.059186 0.917103 0.078545 0.884590 0.000000 0.000000 0.000000 11.476097 0.988009 -0.604604 -5.993343 4.921792 -8.395226 -42.534945 14.635668 5.710016 0.000000 0.000000 0.000000 11.803842 0.962567 -0.728478 2.933437 -4.613728 2.047696 -4.723952 -2.194332 -0.269629 -43.389842 6.707324 -62.207177 -179.190778 -85.185819 -177.786751 0.000000 0.000000 0.000000 12.369000 1.141569 -0.641132 2.948414 12.450315 6.270676 -1.879355 3.076224 1.346584 -36.138541 7.644818 52.550847 179.074979 69.716492 179.951716 0.000000 0.000000 0.000000 
-0.460913 25.846031 2.233578 0.000000 0.000000 0.000000 23.444879 -18.831841 9.274331 -75.634366 -1.081138 24.168155 59.792712 -1.268999 5.833949 -6.757920 4.385649 -27.652347 -2.683501 -0.031416 0.825836 0.000000 0.000000 0.000000 23.733562 -20.661630 9.899149 -68.870239 -2.261003 -24.069764 63.489716 0.489410 -12.495605 -18.697033 -5.060253 20.864141 -6.485937 2.132845 -1.156010 0.000000 0.000000 0.000000 25.287621 -19.970805 8.987787 16.117532 1.149172 -0.785628 10.884413 1.331498 -0.959710 0.796635 0.131206 0.953692 0.000000 0.000000 0.000000 11.714811 0.942700 -0.578243 -5.818624 4.773085 -8.731877 -42.890101 15.361650 4.933292 0.000000 0.000000 0.000000 12.133658 0.872755 -0.634253 2.793392 -4.409113 0.720875 -4.569745 -2.084890 -0.354926 -42.462729 6.429741 -62.340728 -179.079323 -84.677994 -177.753050 0.000000 0.000000 0.000000 12.619493 1.063505 -0.583078 2.930542 12.134290 6.229160 -1.871718 3.179347 1.854296 -35.314510 7.838954 52.763618 179.087560 68.928391 179.845943 0.000000 0.000000 0.000000 
